<svg width="25" height="25" viewBox="0 0 25 25" fill="none" xmlns="http://www.w3.org/2000/svg">
<circle cx="12.5942" cy="7.65962" r="5.15962" stroke="#3793EF"/>
<path d="M17.1538 11.1096C17.2228 11.0646 17.2853 11.0231 17.3406 10.986C18.6967 11.8813 19.5528 12.7783 20.0644 14.0792C20.6066 15.4579 20.7842 17.3438 20.6408 20.2634C17.4777 22.3597 15.0499 23.3182 12.6482 23.2998C10.2429 23.2813 7.77545 22.2829 4.53195 20.2571C4.42856 17.3714 4.56794 15.4328 5.08374 14.0149C5.56988 12.6786 6.40455 11.7698 7.81073 10.9708C7.8769 11.0147 7.95441 11.0653 8.04194 11.1212C8.34662 11.3156 8.77508 11.5748 9.27024 11.8335C10.2371 12.3387 11.5464 12.89 12.6983 12.8715C13.8062 12.8537 15.0579 12.3038 15.9816 11.8066C16.4545 11.552 16.8632 11.2989 17.1538 11.1096Z" stroke="#3793EF"/>
</svg>
